# xmcd
#
# Track frame offsets:
#	150
#	23351
#	35212
#	56706
#	73546
#	87174
#	98935
#	114718
#	129758
#	141743
#	154436
#	166757
#	182589
#	198642
#	215960
#	228536
#	242571
#	259615
#	273161
#	291368
#	309606
#	321112
#	338638
#
# Disc length: 4709 seconds
#
# Revision: 0
# Processed by: cddbd v1.4PL0 Copyright (c) Steve Scherf et al.
# Submitted via: dBpowerAMP V4.0
#
DISCID=5b126317
DTITLE=Scooter Lee - Dancing in the Streets - The Ultimate Scooter Lee Collection
DYEAR=2001
DGENRE=Country
TTITLE0=Scooter Lee - Dancing in the Streets
TTITLE1=Scooter Lee - The Last Time Uh Huh
TTITLE2=Scooter Lee - You Bad Thang
TTITLE3=Scooter Lee - J'ai Du Boogie
TTITLE4=Scooter Lee - Twistin' The Night Away
TTITLE5=Scooter Lee - If You Don't Straighten Up
TTITLE6=Scooter Lee - You're On Your Way
TTITLE7=Scooter Lee - Baby Please Come Home
TTITLE8=Scooter Lee - Moving On Up
TTITLE9=Scooter Lee - OEEOEEO
TTITLE10=Scooter Lee - Dizzy
TTITLE11=Scooter Lee - Honky Tonk Twist
TTITLE12=Scooter Lee - He's My Little Jalapeno
TTITLE13=Scooter Lee - Old Friend
TTITLE14=Scooter Lee - Rompin' Stompin'
TTITLE15=Scooter Lee - High Test Love
TTITLE16=Scooter Lee - Shadows in the Night
TTITLE17=Scooter Lee - Rock and Roll Waltz
TTITLE18=Scooter Lee - Ribbon of Highway
TTITLE19=Scooter Lee - Somebody Loves you
TTITLE20=Scooter Lee - Heartbreak Hotel
TTITLE21=Scooter Lee - Can't Help It
TTITLE22=Scooter Lee - Honey Hush
EXTD=Album Name: Dancing in the Streets - The Ultimate Scooter Lee Collection\nArtist: Scooter Lee\nRed Line Records  2001
EXTT0=
EXTT1=
EXTT2=
EXTT3=
EXTT4=
EXTT5=
EXTT6=
EXTT7=
EXTT8=
EXTT9=
EXTT10=
EXTT11=
EXTT12=
EXTT13=
EXTT14=
EXTT15=
EXTT16=
EXTT17=
EXTT18=
EXTT19=
EXTT20=
EXTT21=
EXTT22=
PLAYORDER=
